<svg width="66" height="73" viewBox="0 0 66 73" fill="none" xmlns="http://www.w3.org/2000/svg">
<path d="M58.6667 0H7.33333C5.38841 0 3.52315 0.769105 2.14788 2.13812C0.772617 3.50714 0 5.36392 0 7.3V54.75C0 56.6861 0.772617 58.5429 2.14788 59.9119C3.52315 61.2809 5.38841 62.05 7.33333 62.05H22L33 73L44 62.05H58.6667C60.6116 62.05 62.4768 61.2809 63.8521 59.9119C65.2274 58.5429 66 56.6861 66 54.75V7.3C66 5.36392 65.2274 3.50714 63.8521 2.13812C62.4768 0.769105 60.6116 0 58.6667 0ZM33 10.95C39.3323 10.95 44 15.5928 44 21.9C44 28.2072 39.3323 32.85 33 32.85C26.6713 32.85 22 28.2072 22 21.9C22 15.5928 26.6713 10.95 33 10.95ZM15.3157 51.1C17.3617 44.8111 24.4677 40.15 33 40.15C41.5323 40.15 48.642 44.8111 50.6843 51.1H15.3157Z" fill="white"/>
</svg>
