<svg width="182" height="155" viewBox="0 0 182 155" fill="none" xmlns="http://www.w3.org/2000/svg">
<g opacity="0.2">
<circle cx="164.287" cy="137.286" r="4.42854" transform="rotate(90 164.287 137.286)" fill="white" fill-opacity="0.56"/>
<circle cx="4.85906" cy="137.286" r="4.42854" transform="rotate(90 4.85906 137.286)" fill="white" fill-opacity="0.56"/>
<circle cx="177.572" cy="137.286" r="4.42854" transform="rotate(90 177.572 137.286)" fill="white" fill-opacity="0.8"/>
<circle cx="151.001" cy="137.286" r="4.42854" transform="rotate(90 151.001 137.286)" fill="white" fill-opacity="0.32"/>
<circle cx="164.287" cy="150.571" r="4.42854" transform="rotate(90 164.287 150.571)" fill="white" fill-opacity="0.72"/>
<circle cx="4.85906" cy="150.571" r="4.42854" transform="rotate(90 4.85906 150.571)" fill="white" fill-opacity="0.72"/>
<circle cx="177.572" cy="150.571" r="4.42854" transform="rotate(90 177.572 150.571)" fill="white"/>
<circle cx="151.001" cy="124.001" r="4.42854" transform="rotate(90 151.001 124.001)" fill="white" fill-opacity="0.64"/>
<circle cx="97.8581" cy="124.001" r="4.42854" transform="rotate(90 97.8581 124.001)" fill="white" fill-opacity="0.16"/>
<circle cx="164.287" cy="97.4305" r="4.42854" transform="rotate(90 164.287 97.4305)" fill="white" fill-opacity="0.56"/>
<circle cx="4.85906" cy="97.4305" r="4.42854" transform="rotate(90 4.85906 97.4305)" fill="white" fill-opacity="0.56"/>
<circle cx="177.572" cy="97.4305" r="4.42854" transform="rotate(90 177.572 97.4305)" fill="white" fill-opacity="0.32"/>
<circle cx="151.001" cy="97.4305" r="4.42854" transform="rotate(90 151.001 97.4305)" fill="white"/>
<circle cx="124.429" cy="97.4305" r="4.42854" transform="rotate(90 124.429 97.4305)" fill="white" fill-opacity="0.56"/>
<circle cx="137.715" cy="110.714" r="4.42854" transform="rotate(90 137.715 110.714)" fill="white" fill-opacity="0.4"/>
<circle cx="151.001" cy="110.714" r="4.42854" transform="rotate(90 151.001 110.714)" fill="white" fill-opacity="0.64"/>
<circle cx="164.287" cy="84.1434" r="4.42854" transform="rotate(90 164.287 84.1434)" fill="white" fill-opacity="0.24"/>
<circle cx="4.85906" cy="84.1434" r="4.42854" transform="rotate(90 4.85906 84.1434)" fill="white" fill-opacity="0.24"/>
<circle cx="177.572" cy="84.1434" r="4.42854" transform="rotate(90 177.572 84.1434)" fill="white" fill-opacity="0.16"/>
<circle cx="137.715" cy="84.1434" r="4.42854" transform="rotate(90 137.715 84.1434)" fill="white" fill-opacity="0.8"/>
<circle cx="111.144" cy="84.1434" r="4.42854" transform="rotate(90 111.144 84.1434)" fill="white" fill-opacity="0.72"/>
<circle cx="151.001" cy="84.1434" r="4.42854" transform="rotate(90 151.001 84.1434)" fill="white"/>
<circle cx="124.429" cy="84.1434" r="4.42854" transform="rotate(90 124.429 84.1434)" fill="white" fill-opacity="0.16"/>
<circle cx="97.8581" cy="84.1434" r="4.42854" transform="rotate(90 97.8581 84.1434)" fill="white" fill-opacity="0.12"/>
<circle cx="111.144" cy="17.714" r="4.42854" transform="rotate(-90 111.144 17.714)" fill="white" fill-opacity="0.56"/>
<circle cx="97.8577" cy="17.714" r="4.42854" transform="rotate(-90 97.8577 17.714)" fill="white" fill-opacity="0.8"/>
<circle cx="164.286" cy="17.714" r="4.42854" transform="rotate(-90 164.286 17.714)" fill="white"/>
<circle cx="4.85872" cy="17.714" r="4.42854" transform="rotate(-90 4.85872 17.714)" fill="white"/>
<circle cx="124.43" cy="17.714" r="4.42854" transform="rotate(-90 124.43 17.714)" fill="white" fill-opacity="0.32"/>
<circle cx="151" cy="17.714" r="4.42854" transform="rotate(-90 151 17.714)" fill="white" fill-opacity="0.32"/>
<circle cx="177.573" cy="17.714" r="4.42854" transform="rotate(-90 177.573 17.714)" fill="white" fill-opacity="0.48"/>
<circle cx="111.144" cy="4.43083" r="4.42854" transform="rotate(-90 111.144 4.43083)" fill="white" fill-opacity="0.72"/>
<circle cx="97.8577" cy="4.43083" r="4.42854" transform="rotate(-90 97.8577 4.43083)" fill="white"/>
<circle cx="164.286" cy="4.43083" r="4.42854" transform="rotate(-90 164.286 4.43083)" fill="white"/>
<circle cx="4.85872" cy="4.43083" r="4.42854" transform="rotate(-90 4.85872 4.43083)" fill="white"/>
<circle cx="124.43" cy="4.43083" r="4.42854" transform="rotate(-90 124.43 4.43083)" fill="white"/>
<circle cx="151" cy="4.43083" r="4.42854" transform="rotate(-90 151 4.43083)" fill="white"/>
<circle cx="177.573" cy="4.43083" r="4.42854" transform="rotate(-90 177.573 4.43083)" fill="white"/>
<circle cx="137.715" cy="31.0011" r="4.42854" transform="rotate(-90 137.715 31.0011)" fill="white"/>
<circle cx="164.286" cy="31.0011" r="4.42854" transform="rotate(-90 164.286 31.0011)" fill="white" fill-opacity="0.24"/>
<circle cx="4.85872" cy="31.0011" r="4.42854" transform="rotate(-90 4.85872 31.0011)" fill="white" fill-opacity="0.24"/>
<circle cx="124.43" cy="31.0011" r="4.42854" transform="rotate(-90 124.43 31.0011)" fill="white" fill-opacity="0.64"/>
<circle cx="151" cy="31.0011" r="4.42854" transform="rotate(-90 151 31.0011)" fill="white"/>
<circle cx="177.573" cy="31.0011" r="4.42854" transform="rotate(-90 177.573 31.0011)" fill="white" fill-opacity="0.16"/>
<circle cx="111.144" cy="57.5715" r="4.42854" transform="rotate(-90 111.144 57.5715)" fill="white" fill-opacity="0.56"/>
<circle cx="97.8577" cy="57.5715" r="4.42854" transform="rotate(-90 97.8577 57.5715)" fill="white" fill-opacity="0.32"/>
<circle cx="124.43" cy="57.5715" r="4.42854" transform="rotate(-90 124.43 57.5715)" fill="white"/>
<circle cx="151" cy="57.5715" r="4.42854" transform="rotate(-90 151 57.5715)" fill="white" fill-opacity="0.56"/>
<circle cx="177.573" cy="57.5715" r="4.42854" transform="rotate(-90 177.573 57.5715)" fill="white"/>
<circle cx="137.715" cy="44.2863" r="4.42854" transform="rotate(-90 137.715 44.2863)" fill="white" fill-opacity="0.4"/>
<circle cx="124.43" cy="44.2863" r="4.42854" transform="rotate(-90 124.43 44.2863)" fill="white" fill-opacity="0.64"/>
<circle cx="151" cy="44.2863" r="4.42854" transform="rotate(-90 151 44.2863)" fill="white" fill-opacity="0.12"/>
<circle cx="177.573" cy="44.2863" r="4.42854" transform="rotate(-90 177.573 44.2863)" fill="white" fill-opacity="0.72"/>
<circle cx="111.144" cy="70.8586" r="4.42854" transform="rotate(-90 111.144 70.8586)" fill="white" fill-opacity="0.24"/>
<circle cx="97.8577" cy="70.8586" r="4.42854" transform="rotate(-90 97.8577 70.8586)" fill="white" fill-opacity="0.16"/>
<circle cx="137.715" cy="70.8586" r="4.42854" transform="rotate(-90 137.715 70.8586)" fill="white" fill-opacity="0.8"/>
<circle cx="164.286" cy="70.8586" r="4.42854" transform="rotate(-90 164.286 70.8586)" fill="white" fill-opacity="0.72"/>
<circle cx="4.85872" cy="70.8586" r="4.42854" transform="rotate(-90 4.85872 70.8586)" fill="white" fill-opacity="0.72"/>
<circle cx="124.43" cy="70.8586" r="4.42854" transform="rotate(-90 124.43 70.8586)" fill="white"/>
<circle cx="151" cy="70.8586" r="4.42854" transform="rotate(-90 151 70.8586)" fill="white" fill-opacity="0.16"/>
<circle cx="177.573" cy="70.8586" r="4.42854" transform="rotate(-90 177.573 70.8586)" fill="white" fill-opacity="0.12"/>
<circle cx="31.4299" cy="70.8586" r="4.42854" transform="rotate(-180 31.4299 70.8586)" fill="white" fill-opacity="0.56"/>
<circle cx="31.4299" cy="84.1437" r="4.42854" transform="rotate(-180 31.4299 84.1437)" fill="white" fill-opacity="0.8"/>
<circle cx="31.4299" cy="17.714" r="4.42854" transform="rotate(-180 31.4299 17.714)" fill="white"/>
<circle cx="31.4299" cy="57.5715" r="4.42854" transform="rotate(-180 31.4299 57.5715)" fill="white" fill-opacity="0.32"/>
<circle cx="31.4299" cy="31.0011" r="4.42854" transform="rotate(-180 31.4299 31.0011)" fill="white" fill-opacity="0.32"/>
<circle cx="31.4299" cy="4.43083" r="4.42854" transform="rotate(-180 31.4299 4.43083)" fill="white" fill-opacity="0.48"/>
<circle cx="18.1442" cy="70.8586" r="4.42854" transform="rotate(-180 18.1442 70.8586)" fill="white" fill-opacity="0.72"/>
<circle cx="18.1442" cy="84.1437" r="4.42854" transform="rotate(-180 18.1442 84.1437)" fill="white"/>
<circle cx="18.1442" cy="17.714" r="4.42854" transform="rotate(-180 18.1442 17.714)" fill="white"/>
<circle cx="18.1442" cy="57.5715" r="4.42854" transform="rotate(-180 18.1442 57.5715)" fill="white"/>
<circle cx="18.1442" cy="31.0011" r="4.42854" transform="rotate(-180 18.1442 31.0011)" fill="white"/>
<circle cx="18.1442" cy="4.43083" r="4.42854" transform="rotate(-180 18.1442 4.43083)" fill="white"/>
<circle cx="44.7155" cy="44.2863" r="4.42854" transform="rotate(-180 44.7155 44.2863)" fill="white"/>
<circle cx="44.7155" cy="17.714" r="4.42854" transform="rotate(-180 44.7155 17.714)" fill="white" fill-opacity="0.24"/>
<circle cx="44.7155" cy="57.5715" r="4.42854" transform="rotate(-180 44.7155 57.5715)" fill="white" fill-opacity="0.64"/>
<circle cx="44.7155" cy="31.0011" r="4.42854" transform="rotate(-180 44.7155 31.0011)" fill="white"/>
<circle cx="44.7155" cy="4.43083" r="4.42854" transform="rotate(-180 44.7155 4.43083)" fill="white" fill-opacity="0.16"/>
<circle cx="71.2868" cy="70.8586" r="4.42854" transform="rotate(-180 71.2868 70.8586)" fill="white" fill-opacity="0.56"/>
<circle cx="71.2868" cy="84.1437" r="4.42854" transform="rotate(-180 71.2868 84.1437)" fill="white" fill-opacity="0.32"/>
<circle cx="71.2868" cy="57.5715" r="4.42854" transform="rotate(-180 71.2868 57.5715)" fill="white"/>
<circle cx="71.2868" cy="31.0011" r="4.42854" transform="rotate(-180 71.2868 31.0011)" fill="white" fill-opacity="0.56"/>
<circle cx="71.2868" cy="4.43083" r="4.42854" transform="rotate(-180 71.2868 4.43083)" fill="white"/>
<circle cx="58.0011" cy="44.2863" r="4.42854" transform="rotate(-180 58.0011 44.2863)" fill="white" fill-opacity="0.4"/>
<circle cx="58.0011" cy="57.5715" r="4.42854" transform="rotate(-180 58.0011 57.5715)" fill="white" fill-opacity="0.64"/>
<circle cx="58.0011" cy="31.0011" r="4.42854" transform="rotate(-180 58.0011 31.0011)" fill="white" fill-opacity="0.12"/>
<circle cx="58.0011" cy="4.43083" r="4.42854" transform="rotate(-180 58.0011 4.43083)" fill="white" fill-opacity="0.72"/>
<circle cx="84.5724" cy="70.8586" r="4.42854" transform="rotate(-180 84.5724 70.8586)" fill="white" fill-opacity="0.24"/>
<circle cx="84.5724" cy="84.1437" r="4.42854" transform="rotate(-180 84.5724 84.1437)" fill="white" fill-opacity="0.16"/>
<circle cx="84.5724" cy="44.2863" r="4.42854" transform="rotate(-180 84.5724 44.2863)" fill="white" fill-opacity="0.8"/>
<circle cx="84.5724" cy="17.714" r="4.42854" transform="rotate(-180 84.5724 17.714)" fill="white" fill-opacity="0.72"/>
<circle cx="84.5724" cy="57.5715" r="4.42854" transform="rotate(-180 84.5724 57.5715)" fill="white"/>
<circle cx="84.5724" cy="31.0011" r="4.42854" transform="rotate(-180 84.5724 31.0011)" fill="white" fill-opacity="0.16"/>
<circle cx="84.5724" cy="4.43083" r="4.42854" transform="rotate(-180 84.5724 4.43083)" fill="white" fill-opacity="0.12"/>
<circle cx="31.43" cy="97.4305" r="4.42854" fill="white" fill-opacity="0.32"/>
<circle cx="44.7152" cy="150.571" r="4.42854" fill="white" fill-opacity="0.12"/>
<circle cx="18.1448" cy="110.714" r="4.42854" fill="white" fill-opacity="0.24"/>
<circle cx="18.1448" cy="97.4305" r="4.42854" fill="white" fill-opacity="0.16"/>
<circle cx="18.1448" cy="150.571" r="4.42854" fill="white" fill-opacity="0.16"/>
</g>
</svg>
