<svg width="76" height="66" viewBox="0 0 76 66" fill="none" xmlns="http://www.w3.org/2000/svg">
<g clip-path="url(#clip0)">
<path d="M15.2003 12.375C18.3472 12.375 20.9003 9.60352 20.9003 6.1875C20.9003 2.77148 18.3472 0 15.2003 0C12.0534 0 9.5003 2.77148 9.5003 6.1875C9.5003 9.60352 12.0534 12.375 15.2003 12.375ZM60.8003 12.375C63.9472 12.375 66.5003 9.60352 66.5003 6.1875C66.5003 2.77148 63.9472 0 60.8003 0C57.6534 0 55.1003 2.77148 55.1003 6.1875C55.1003 9.60352 57.6534 12.375 60.8003 12.375ZM75.7272 60.341L70.5022 46.1613L65.6215 52.1426L65.384 54.4887L68.6734 63.409C69.2672 65.0203 70.6922 66 72.2003 66C72.6753 66 73.1503 65.9098 73.6134 65.7035C75.5609 64.8527 76.5109 62.4551 75.7272 60.341ZM71.6659 33.2965L69.469 22.9582C68.9228 20.3801 67.2603 18.2145 65.0159 17.1703C62.819 16.1391 60.3847 16.3066 58.354 17.5957C55.6584 19.323 53.6397 22.043 52.6422 25.2527L51.3003 29.6227L49.4003 30.9375V18.5625C49.4003 17.4281 48.5453 16.5 47.5003 16.5H28.5003C27.4553 16.5 26.6003 17.4281 26.6003 18.5625V30.9375L24.6884 29.6227L23.3465 25.2527C22.3609 22.0301 20.3303 19.323 17.6347 17.5957C15.5922 16.3066 13.1697 16.1391 10.9728 17.1703C8.72842 18.2145 7.06592 20.3801 6.51967 22.9582L4.33467 33.2965C3.78842 35.8746 4.4178 38.6074 6.04467 40.6055L14.0247 50.3895L15.224 62.3262C15.4378 64.4273 17.0765 66 19.0003 66C19.1428 66 19.2734 65.9871 19.4159 65.9742C21.5059 65.7293 23.0022 63.6926 22.7765 61.4238L21.5772 49.4613C21.399 47.7855 20.7578 46.2258 19.7247 44.9496L14.5828 38.6332L16.6728 29.5711L17.4803 32.2008C17.9672 33.8121 18.8934 35.2172 20.3897 36.4031L26.4578 40.5926C27.004 40.9664 27.8947 41.1855 28.5003 41.2371H47.5003C48.1059 41.1855 48.9965 40.9664 49.5428 40.5926L55.6109 36.4031C57.1072 35.2172 58.0334 33.825 58.5203 32.2008L59.3278 29.5711L61.4178 38.6332L56.2759 44.9496C55.2428 46.2258 54.6015 47.7855 54.4234 49.4613L53.224 61.4238C52.9984 63.6926 54.5065 65.7293 56.5847 65.9742C56.7272 65.9871 56.8578 66 57.0003 66C58.9122 66 60.5628 64.4402 60.7765 62.3262L61.9759 50.3895L69.9559 40.6055C71.5709 38.6074 72.2122 35.8746 71.6659 33.2965ZM5.49842 46.1613L0.273423 60.341C-0.510327 62.4551 0.439673 64.8527 2.38717 65.7035C4.38217 66.5543 6.5553 65.4844 7.32717 63.409L10.6165 54.4887L10.379 52.1426L5.49842 46.1613Z" fill="white"/>
</g>
<defs>
<clipPath id="clip0">
<rect width="76" height="66" fill="white"/>
</clipPath>
</defs>
</svg>
